<svg width="48" height="48" viewBox="0 0 48 48" fill="none" xmlns="http://www.w3.org/2000/svg">
<path d="M24 48C37.2548 48 48 37.2548 48 24C48 10.7452 37.2548 0 24 0C10.7452 0 0 10.7452 0 24C0 37.2548 10.7452 48 24 48Z" fill="white"/>
<path d="M24 43.1998C34.6039 43.1998 43.2 34.6037 43.2 23.9998C43.2 13.3959 34.6039 4.7998 24 4.7998C13.3961 4.7998 4.8 13.3959 4.8 23.9998C4.8 34.6037 13.3961 43.1998 24 43.1998Z" fill="#EEEEEE"/>
<path d="M22.8 8.3999H25.2V23.9999H22.8V8.3999Z" fill="black"/>
<path d="M32.742 30.785L30.792 32.7362L22.9872 24.9314L24.9384 22.979L32.742 30.785Z" fill="black"/>
<path d="M24 26.4001C25.3255 26.4001 26.4 25.3256 26.4 24.0001C26.4 22.6746 25.3255 21.6001 24 21.6001C22.6745 21.6001 21.6 22.6746 21.6 24.0001C21.6 25.3256 22.6745 26.4001 24 26.4001Z" fill="black"/>
<path d="M24 25.1998C24.6627 25.1998 25.2 24.6625 25.2 23.9998C25.2 23.3371 24.6627 22.7998 24 22.7998C23.3373 22.7998 22.8 23.3371 22.8 23.9998C22.8 24.6625 23.3373 25.1998 24 25.1998Z" fill="#00ACC1"/>
</svg>
